<svg width="15" height="16" viewBox="0 0 15 16" fill="none" xmlns="http://www.w3.org/2000/svg">
<path fill-rule="evenodd" clip-rule="evenodd" d="M9.44973 4.19001C9.54253 4.09721 9.66841 4.04507 9.79965 4.04507C9.9309 4.04507 10.0568 4.09721 10.1496 4.19001L13.6488 7.68926C13.7416 7.78206 13.7937 7.90794 13.7937 8.03918C13.7937 8.17043 13.7416 8.2963 13.6488 8.38911L10.1496 11.8884C10.0568 11.9812 9.9309 12.0333 9.79965 12.0333C9.66841 12.0333 9.54254 11.9812 9.44973 11.8884C9.35693 11.7956 9.30479 11.6697 9.30479 11.5384C9.30479 11.4072 9.35693 11.2813 9.44973 11.1885L12.599 8.03918L9.44973 4.88986C9.35692 4.79706 9.30479 4.67118 9.30479 4.53994C9.30479 4.40869 9.35692 4.28282 9.44973 4.19001Z" fill="#37D79D"/>
<path fill-rule="evenodd" clip-rule="evenodd" d="M0.205642 8.03918C0.20556 7.97408 0.218322 7.9096 0.243198 7.84944C0.268074 7.78927 0.304575 7.73461 0.35061 7.68857C0.396645 7.64253 0.45131 7.60603 0.511474 7.58116C0.571637 7.55628 0.636117 7.54352 0.701221 7.5436L13.3007 7.5436C13.4321 7.5436 13.5582 7.59581 13.6511 7.68875C13.744 7.78169 13.7963 7.90775 13.7963 8.03918C13.7963 8.17062 13.744 8.29667 13.6511 8.38961C13.5582 8.48255 13.4321 8.53477 13.3007 8.53477L0.701221 8.53477C0.636118 8.53485 0.571638 8.52209 0.511474 8.49721C0.451311 8.47234 0.396646 8.43584 0.350611 8.3898C0.304575 8.34376 0.268074 8.2891 0.243198 8.22893C0.218322 8.16877 0.20556 8.10429 0.205642 8.03918Z" fill="#37D79D"/>
</svg>
