<svg width="56" height="56" viewBox="0 0 56 56" fill="none" xmlns="http://www.w3.org/2000/svg">
<path d="M49.0876 29.6406H54.3594C55.2654 29.6406 56 28.9061 56 28V12.1844C56 11.2783 55.2654 10.5437 54.3594 10.5437H40.1844V6.9125C40.1844 3.10089 37.0834 0 33.2719 0C29.4604 0 26.3594 3.101 26.3594 6.9125V10.5437H12.1844C11.2783 10.5437 10.5437 11.2783 10.5437 12.1844V26.3594H6.9125C3.101 26.3594 0 29.4604 0 33.2719C0 37.0834 3.101 40.1844 6.9125 40.1844H10.5437V54.3594C10.5437 55.2654 11.2783 56 12.1844 56H28C28.9061 56 29.6406 55.2654 29.6406 54.3594V49.0875C29.6406 47.0852 31.2697 45.4562 33.2719 45.4562C35.2741 45.4562 36.9031 47.0853 36.9031 49.0875V54.3594C36.9031 55.2654 37.6377 56 38.5438 56H54.3594C55.2654 56 56 55.2654 56 54.3594V38.5438C56 37.6377 55.2654 36.9031 54.3594 36.9031H49.0876C47.0852 36.9031 45.4562 35.2741 45.4562 33.2719C45.4562 31.2697 47.0852 29.6406 49.0876 29.6406ZM49.0876 40.1844H52.7188V52.7188H40.1844V49.0875C40.1844 45.2759 37.0834 42.175 33.2719 42.175C29.4604 42.175 26.3594 45.2759 26.3594 49.0875V52.7188H13.825V38.5438C13.825 37.6377 13.0904 36.9031 12.1844 36.9031H6.9125C4.91017 36.9031 3.28125 35.2741 3.28125 33.2719C3.28125 31.2697 4.91028 29.6406 6.9125 29.6406H12.1844C13.0904 29.6406 13.825 28.9061 13.825 28V13.825H28C28.9061 13.825 29.6406 13.0904 29.6406 12.1844V6.9125C29.6406 4.91017 31.2697 3.28125 33.2719 3.28125C35.2741 3.28125 36.9031 4.91028 36.9031 6.9125V12.1844C36.9031 13.0904 37.6377 13.825 38.5438 13.825H52.7188V26.3594H49.0876C45.2759 26.3594 42.175 29.4604 42.175 33.2719C42.175 37.0834 45.2759 40.1844 49.0876 40.1844Z" fill="#37D79D"/>
</svg>
