<svg width="68" height="48" viewBox="0 0 68 48" fill="none" xmlns="http://www.w3.org/2000/svg">
<path d="M33.6116 28.7168C36.6816 28.7168 39.1704 26.228 39.1704 23.158C39.1704 20.0879 36.6816 17.5991 33.6116 17.5991C30.5415 17.5991 28.0527 20.0879 28.0527 23.158C28.0527 26.228 30.5415 28.7168 33.6116 28.7168Z" fill="white"/>
<path d="M54.0078 2C61.356 7.32056 66.0002 15.1399 66.0002 23.8432C66.0002 32.5465 61.356 40.3489 54.0078 45.6864" stroke="#37D79D" stroke-width="4" stroke-miterlimit="10" stroke-linecap="round"/>
<path d="M43.9121 11.4226C48.1149 14.4599 50.7649 18.8886 50.7649 23.8433C50.7649 28.7979 48.1149 33.2266 43.9121 36.2639" stroke="#37D79D" stroke-width="4" stroke-miterlimit="10" stroke-linecap="round"/>
<path d="M13.9924 2C6.63622 7.33756 2 15.1399 2 23.8432C2 32.5465 6.63622 40.3489 13.9717 45.6864" stroke="#37D79D" stroke-width="4" stroke-miterlimit="10" stroke-linecap="round"/>
<path d="M24.0881 11.4226C19.8854 14.4599 17.2354 18.8886 17.2354 23.8433C17.2354 28.7979 19.8854 33.2266 24.0881 36.2639" stroke="#37D79D" stroke-width="4" stroke-miterlimit="10" stroke-linecap="round"/>
</svg>
