<svg width="51" height="52" viewBox="0 0 51 52" fill="none" xmlns="http://www.w3.org/2000/svg">
<path d="M25.5 0C11.4347 0 0 11.6589 0 26C0 40.3411 11.4347 52 25.5 52C39.5653 52 51 40.3411 51 26C51 11.6589 39.5653 0 25.5 0ZM30.9758 13.52C29.2042 13.8484 27.3789 14.0126 25.5 14.0126C23.6211 14.0126 21.7958 13.8484 20.0242 13.52C21.42 7.06105 23.7284 3.22947 25.5 3.22947C27.2716 3.22947 29.58 7.06105 30.9758 13.52ZM30.9221 3.94105C34.7874 4.92632 38.2768 6.95158 41.0684 9.74316C39.0284 11.0568 36.6663 12.0968 34.0895 12.8084C33.3379 9.30526 32.2642 6.24 30.9221 3.94105ZM18.8432 24.3579C18.8968 21.5663 19.1116 18.9937 19.4874 16.6947C21.4737 17.0232 23.46 17.2421 25.5537 17.2421C27.5937 17.2421 29.6337 17.0232 31.62 16.6947C31.9421 18.9937 32.1568 21.5663 32.2642 24.3579H18.8432ZM32.1568 27.6421C32.1032 30.4337 31.8884 33.0063 31.5663 35.3053C29.58 34.9768 27.5937 34.7579 25.5 34.7579C23.46 34.7579 21.42 34.9768 19.4337 35.3053C19.1116 33.0063 18.8968 30.4337 18.8432 27.6421H32.1568ZM16.9105 12.8084C14.3337 12.0968 11.9716 11.0568 9.93158 9.74316C12.7232 6.95158 16.2126 4.98105 20.0779 3.94105C18.7358 6.24 17.6621 9.30526 16.9105 12.8084ZM16.3737 16.0379C15.9442 18.72 15.7295 21.5663 15.6758 24.4126H3.32842C3.65053 19.8695 5.31474 15.6547 7.89158 12.2063C10.2537 13.8484 13.2063 15.1621 16.3737 16.0379ZM15.6221 27.6421C15.6758 30.4884 15.9442 33.28 16.32 36.0168C13.1526 36.8926 10.2537 38.1516 7.78421 39.8484C5.20737 36.4 3.59684 32.1853 3.27474 27.6421H15.6221ZM16.9105 39.1916C17.6621 42.6947 18.7358 45.8147 20.0779 48.0589C16.2126 47.0737 12.7232 45.0484 9.93158 42.2568C11.9716 40.9432 14.3337 39.9032 16.9105 39.1916ZM20.0242 38.48C21.7958 38.1516 23.6211 37.9874 25.5 37.9874C27.3789 37.9874 29.2042 38.1516 30.9758 38.48C29.58 44.9389 27.2716 48.7705 25.5 48.7705C23.7284 48.7705 21.42 44.9389 20.0242 38.48ZM34.0895 39.1916C36.6663 39.9032 39.0284 40.9432 41.0684 42.3116C38.2768 45.1032 34.7874 47.0737 30.9221 48.1137C32.2642 45.76 33.3379 42.6947 34.0895 39.1916ZM34.6263 35.9621C35.0558 33.28 35.2705 30.4337 35.3242 27.5874H47.6716C47.3495 32.1305 45.6853 36.3453 43.1084 39.7937C40.6926 38.1516 37.7937 36.8379 34.6263 35.9621ZM35.3779 24.3579C35.3242 21.5116 35.0558 18.72 34.68 15.9832C37.8474 15.1074 40.7463 13.8484 43.2158 12.1516C45.7926 15.6 47.4568 19.76 47.7789 24.3579H35.3779Z" fill="#37D79D"/>
</svg>
