<svg width="69" height="52" viewBox="0 0 69 52" fill="none" xmlns="http://www.w3.org/2000/svg">
<path d="M44.8947 22.9285L29.7273 14.6295C28.8552 14.1524 27.8244 14.1702 26.9695 14.6767C26.1142 15.1837 25.604 16.0794 25.604 17.0735V33.529C25.604 34.5184 26.111 35.4126 26.9606 35.9201C27.4043 36.1851 27.8961 36.3182 28.389 36.3182C28.8405 36.3182 29.2931 36.2066 29.7095 35.9824L44.8775 27.8265C45.7779 27.342 46.3399 26.4059 46.3441 25.383C46.3477 24.36 45.7925 23.4198 44.8947 22.9285ZM29.6273 31.459V19.1603L40.9632 25.3631L29.6273 31.459Z" fill="white"/>
<path d="M68.1496 12.273L68.1464 12.2415C68.0883 11.6889 67.5095 6.77368 65.12 4.27362C62.358 1.33305 59.2268 0.975825 57.7209 0.804545C57.5962 0.790403 57.482 0.777308 57.3799 0.763689L57.2599 0.751118C48.1837 0.0911399 34.4765 0.00104758 34.3393 0.000523792L34.3273 0L34.3152 0.000523792C34.178 0.00104758 20.4709 0.0911399 11.3129 0.751118L11.1919 0.763689C11.0944 0.776784 10.9871 0.788831 10.8703 0.80245C9.38164 0.974254 6.28394 1.332 3.51412 4.3789C1.23824 6.85225 0.580362 11.6622 0.512793 12.2028L0.504936 12.273C0.484508 12.5029 0 17.9771 0 23.4727V28.6101C0 34.1057 0.484508 39.5798 0.504936 39.8103L0.508602 39.8449C0.566743 40.3886 1.14501 45.2138 3.52355 47.7149C6.12051 50.557 9.40417 50.933 11.1704 51.1352C11.4496 51.1672 11.69 51.1944 11.8539 51.2232L12.0127 51.2452C17.2532 51.7439 33.684 51.9895 34.3807 51.9995L34.4016 52L34.4226 51.9995C34.5598 51.999 48.2664 51.9089 57.3427 51.2489L57.4626 51.2363C57.5773 51.2211 57.7062 51.2075 57.8476 51.1928C59.3279 51.0357 62.4088 50.7094 65.1404 47.7039C67.4163 45.23 68.0747 40.42 68.1417 39.88L68.1496 39.8098C68.17 39.5793 68.655 34.1057 68.655 28.6101V23.4727C68.6545 17.9771 68.17 12.5034 68.1496 12.273ZM64.6313 28.6101C64.6313 33.6966 64.1871 38.9351 64.1452 39.4159C63.9744 40.7406 63.2804 43.7838 62.1715 44.989C60.4619 46.87 58.7056 47.0564 57.4233 47.1921C57.2683 47.2084 57.1248 47.2241 56.9949 47.2403C48.2161 47.8751 35.0265 47.9726 34.4189 47.9762C33.7375 47.9663 17.547 47.7185 12.4663 47.2466C12.2059 47.2042 11.9247 47.1717 11.6282 47.1382C10.1244 46.9658 8.06588 46.7301 6.48298 44.989L6.44579 44.9492C5.3563 43.8142 4.68218 40.9684 4.5109 39.4316C4.47895 39.0681 4.02325 33.7678 4.02325 28.6101V23.4727C4.02325 18.3919 4.46638 13.1592 4.50933 12.6684C4.71308 11.1081 5.4202 8.2492 6.48298 7.09372C8.24502 5.15569 10.1029 4.94093 11.3317 4.79899C11.4491 4.78537 11.5585 4.7728 11.6596 4.7597C20.5662 4.12172 33.8506 4.02692 34.3273 4.02325C34.8039 4.02639 48.0836 4.12172 56.9111 4.7597C57.0195 4.77332 57.1379 4.78694 57.2652 4.8016C58.5291 4.94565 60.4393 5.16354 62.1925 7.03348L62.2087 7.05077C63.2982 8.18583 63.9723 11.0814 64.1436 12.6491C64.174 12.9921 64.6313 18.3039 64.6313 23.4727V28.6101Z" fill="#37D79D"/>
</svg>
